<svg version="1.0" xmlns="http://www.w3.org/2000/svg"
    width="50" height="50" viewBox="0 0 372.000000 372.000000"
    preserveAspectRatio="xMidYMid meet">
    <defs>
        <!-- Glossy Highlight Effect -->
        <linearGradient id="gloss-gradient" x1="0%" y1="0%" x2="0%" y2="100%">
            <stop offset="0%" style="stop-color:#ffffff;stop-opacity:0" />
            <stop offset="50%" style="stop-color:#ffffff;stop-opacity:0" />
            <stop offset="100%" style="stop-color:#ffffff;stop-opacity:0" />
        </linearGradient>
        <!-- Subtle Drop Shadow -->
        <filter id="black-shadow" x="-20%" y="-20%" width="140%" height="140%">
            <feGaussianBlur in="SourceAlpha" stdDeviation="2" result="blur"/>
            <feOffset in="blur" dx="3" dy="3" result="offsetBlur"/>
            <feMerge>
                <feMergeNode in="offsetBlur"/>
                <feMergeNode in="SourceGraphic"/>
            </feMerge>
        </filter>
    </defs>
    <g transform="translate(0.000000,372.000000) scale(0.100000,-0.100000)"
       fill="#ffffff" filter="url(#black-shadow)">
        <path d="M2876 3231 c-6 -9 -97 -83 -361 -293 -38 -30 -158 -126 -265 -212
        -107 -86 -246 -197 -307 -246 -62 -50 -119 -90 -127 -90 -7 0 -19 7 -27 16 -7
        9 -33 30 -58 47 -25 17 -57 41 -71 53 -22 20 -181 149 -330 269 -30 25 -126
        102 -213 172 -87 71 -170 137 -185 148 -15 11 -60 46 -99 78 -40 32 -77 56
        -83 52 -12 -8 -14 -2043 -1 -2063 6 -11 16 -7 42 15 19 16 78 62 132 102 54
        40 102 82 106 94 6 17 12 599 11 1210 0 9 4 17 10 17 10 0 125 -84 145 -106
        11 -11 193 -158 359 -288 56 -44 135 -108 176 -143 41 -34 81 -63 87 -63 11 0
        227 170 671 528 74 59 149 118 167 132 69 53 234 191 241 202 10 16 5 361 -5
        371 -5 5 -12 4 -15 -2z"/>
        <path d="M2745 2366 c-108 -86 -131 -109 -137 -137 -4 -19 -7 -261 -7 -539 0
        -715 1 -670 -13 -670 -7 0 -31 15 -54 33 -73 57 -289 232 -294 238 -7 7 -245
        200 -278 224 -15 11 -48 36 -74 57 -26 21 -56 38 -67 38 -12 0 -47 -21 -79
        -46 -31 -25 -72 -57 -91 -72 -19 -15 -64 -52 -101 -82 -37 -30 -91 -73 -120
        -95 -28 -22 -101 -80 -162 -130 -61 -49 -120 -97 -132 -105 -22 -15 -347 -277
        -379 -305 -16 -14 -17 -34 -15 -197 2 -112 7 -183 13 -185 6 -2 26 10 45 27
        19 16 46 38 60 49 14 11 50 41 80 65 305 247 872 696 880 696 6 0 121 -89 256
        -197 134 -109 257 -207 273 -218 36 -27 221 -176 286 -231 122 -104 255 -203
        260 -194 8 13 7 2058 0 2071 -4 5 -9 9 -13 8 -4 0 -65 -47 -137 -103z"/>
        <path fill="url(#gloss-gradient)" d="M2876 3231 c-6 -9 -97 -83 -361 -293 -38 -30 -158 -126 -265 -212
        -107 -86 -246 -197 -307 -246 -62 -50 -119 -90 -127 -90 -7 0 -19 7 -27 16 -7
        9 -33 30 -58 47 -25 17 -57 41 -71 53 -22 20 -181 149 -330 269 -30 25 -126
        102 -213 172 -87 71 -170 137 -185 148 -15 11 -60 46 -99 78 -40 32 -77 56
        -83 52 -12 -8 -14 -2043 -1 -2063 6 -11 16 -7 42 15 19 16 78 62 132 102 54
        40 102 82 106 94 6 17 12 599 11 1210 0 9 4 17 10 17 10 0 125 -84 145 -106
        11 -11 193 -158 359 -288 56 -44 135 -108 176 -143 41 -34 81 -63 87 -63 11 0
        227 170 671 528 74 59 149 118 167 132 69 53 234 191 241 202 10 16 5 361 -5
        371 -5 5 -12 4 -15 -2z"/>
    </g>
</svg>
